<svg width="32" height="32" viewBox="0 0 32 32" fill="none" xmlns="http://www.w3.org/2000/svg">
<rect width="32" height="32" rx="4" fill="#03C3EC" fill-opacity="0.16"/>
<path d="M17.5 9H11.5C11.1022 9 10.7206 9.1475 10.4393 9.41005C10.158 9.6726 10 10.0287 10 10.4V21.6C10 21.9713 10.158 22.3274 10.4393 22.5899C10.7206 22.8525 11.1022 23 11.5 23H20.5C20.8978 23 21.2794 22.8525 21.5607 22.5899C21.842 22.3274 22 21.9713 22 21.6V13.2M17.5 9L22 13.2M17.5 9V13.2H22M19 16.7H13M19 19.5H13M14.5 13.9H13" stroke="#03C3EC" stroke-linecap="round" stroke-linejoin="round"/>
</svg>
