<svg width="32" height="32" viewBox="0 0 32 32" fill="none" xmlns="http://www.w3.org/2000/svg">
<rect width="32" height="32" rx="4" fill="#FFAB00" fill-opacity="0.16"/>
<path d="M12.6667 14.3V11.5C12.6667 10.5717 13.0179 9.6815 13.643 9.02513C14.2681 8.36875 15.1159 8 16 8C16.8841 8 17.7319 8.36875 18.357 9.02513C18.9821 9.6815 19.3333 10.5717 19.3333 11.5V14.3M11.3333 14.3H20.6667C21.403 14.3 22 14.9268 22 15.7V20.6C22 21.3732 21.403 22 20.6667 22H11.3333C10.597 22 10 21.3732 10 20.6V15.7C10 14.9268 10.597 14.3 11.3333 14.3Z" stroke="#FFAB00" stroke-linecap="round" stroke-linejoin="round"/>
</svg>
