<svg width="239" height="404" viewBox="0 0 239 404" fill="none" xmlns="http://www.w3.org/2000/svg">
<g opacity="0.8">
<path fill-rule="evenodd" clip-rule="evenodd" d="M50.1042 130.314L24.6916 103.914C17.1657 100.42 11.0285 96.6305 6.27994 92.5453C5.22581 91.1892 4.11261 88.6194 9.23213 89.9147C14.3517 91.21 19.7949 92.3422 20.8165 90.6962C21.8381 89.0501 19.0639 86.3914 20.9236 84.2536C22.1634 82.8284 26.0318 87.6073 32.5289 98.5903L59.2856 115.521L50.1042 130.314Z" fill="#B28B67"/>
<path fill-rule="evenodd" clip-rule="evenodd" d="M93.9716 219.528L85.848 219.518C60.943 189.173 57.3117 138.514 25.8754 106.58L36.3613 97.3668C97.2788 115.828 102.471 177.751 93.9716 219.528Z" fill="#E87613"/>
<path fill-rule="evenodd" clip-rule="evenodd" d="M109.236 70.428C114.081 65.9772 117.696 60.2373 118.055 53.3524C119.09 33.5152 91.1801 34.4802 84.6357 43.7529C78.0912 53.0256 75.6324 78.283 82.2974 80.9022C84.9554 81.9468 91.0157 80.9316 97.4075 78.0752L90.427 104.044L112.484 106.752L109.236 70.428Z" fill="#B28B67"/>
<path fill-rule="evenodd" clip-rule="evenodd" d="M98.6123 33.8558C101.578 33.736 109.445 34.3693 110.889 34.5468C111.811 34.66 112.785 34.9935 113.435 34.2136C113.968 33.5749 113.948 32.3817 114.181 31.5932C114.45 30.6772 114.784 29.7813 115.12 28.888C116.075 26.3461 117.34 23.9714 118.968 21.7961C122.024 17.7149 126.133 14.7288 131.033 13.2992C136.444 11.7208 142.322 11.929 147.795 13.056C153.653 14.2618 158.768 16.8724 164.128 19.3962C169.236 21.8011 174.727 23.175 180.399 23.0034C186.114 22.8305 190.726 20.3107 195.811 18.0061C201.018 15.6468 206.79 14.3943 212.461 15.5415C217.755 16.6125 222.411 19.4243 226.468 22.9151C230.265 26.1812 233.269 29.9188 234.622 34.826C236.078 40.1047 235.398 45.6195 231.445 49.6414C225.716 55.4711 216.341 56.0096 208.733 54.9074C204.332 54.2702 200.097 52.9325 196.11 50.9557C190.794 48.3192 186.4 44.4174 181.532 41.0917C179.247 39.5311 176.853 38.1857 174.302 37.1151C171.826 36.076 169.341 35.4336 166.828 36.6978C164.171 38.0352 161.772 39.3749 158.836 40.0559C156.019 40.7092 153.096 40.9091 150.226 40.5343C144.643 39.8049 139.348 37.3873 134.064 35.5546C129.755 34.0603 125.135 32.531 120.511 32.8911C118.581 33.0414 115.734 33.4913 114.814 35.3646C126.005 38.8444 128.762 53.552 124.259 63.5474C121.829 68.9423 110.555 74.2134 106.847 70.7651C104.498 68.5804 106.364 66.3203 107.576 64.8258C109.897 61.9637 111.05 58.0628 107.725 55.4635C104.857 53.2217 101.058 57.2427 100.997 57.2303C100.154 57.0587 93.3096 51.9962 88.9876 45.3043C83.9523 44.9869 83.5986 41.5976 85.1232 39.0485C86.6479 36.4994 94.5147 34.0217 98.6123 33.8558Z" fill="#191847"/>
<path fill-rule="evenodd" clip-rule="evenodd" d="M104.932 182.457L71.0143 299.335L55.061 387.089H39.0488L55.0325 182.457H104.932Z" fill="#784931"/>
<path fill-rule="evenodd" clip-rule="evenodd" d="M120.175 182.457C117.809 243.174 118.742 276.291 119.272 281.808C119.802 287.324 122.809 324.27 143.3 388.941H126.646C99.5084 326.9 90.0351 289.954 86.9226 281.808C83.8102 273.661 74.6178 240.544 61.1973 182.457H120.175Z" fill="#915B3C"/>
<path fill-rule="evenodd" clip-rule="evenodd" d="M105.66 182.457C96.8378 222.675 81.5786 286.873 59.8827 375.052H36.4629C34.7331 284.545 42.0916 224.976 54.8348 182.457H105.66Z" fill="#2F3676"/>
<path fill-rule="evenodd" clip-rule="evenodd" d="M120.294 182.457C117.976 243.174 123.983 302.993 142.59 375.997H117.602C90.4149 314.882 70.929 255.359 57.6117 182.457H120.294Z" fill="#5C63AB"/>
<path fill-rule="evenodd" clip-rule="evenodd" d="M145.673 400.978L144.754 386.163C139.374 387.736 132.636 387.119 124.538 384.311C115.832 390.478 104.871 394.689 91.6567 396.945C90.6485 397.117 89.9707 398.073 90.1428 399.082C90.1539 399.147 90.1685 399.211 90.1866 399.275L91.457 403.756H124.538H143.835L145.673 400.978Z" fill="#191847"/>
<path fill-rule="evenodd" clip-rule="evenodd" d="M58.6353 400.978L57.7163 386.163C52.3362 387.736 45.5974 387.119 37.5001 384.311C28.7935 390.478 17.833 394.689 4.61865 396.945C3.61045 397.117 2.93263 398.073 3.10468 399.082C3.11583 399.147 3.13046 399.211 3.14853 399.275L4.41894 403.756H37.5001H56.7974L58.6353 400.978Z" fill="#191847"/>
<path fill-rule="evenodd" clip-rule="evenodd" d="M140.017 181.866L120.948 178.581C126.017 218.638 128.815 239.912 129.343 242.401C130.531 248.002 124.662 255.179 121.997 259.122C127.726 263.001 128.88 252.578 136.082 257.612C142.655 262.206 147.038 269.202 156.211 265.556C157.339 265.108 158.87 262.942 156.503 260.62C150.605 254.837 142.356 245.08 141.517 242.199C140.372 238.271 139.873 218.16 140.017 181.866Z" fill="#B28B67"/>
<path fill-rule="evenodd" clip-rule="evenodd" d="M116.863 197.509C85.2473 191.934 61.9911 187.834 47.0949 185.207C43.9068 184.645 45.3193 180.147 46.1897 177.906C56.2358 152.034 82.0941 126.796 88.8231 88.6336L109.504 89.0264C121.429 118.732 121.374 152.708 116.863 197.509Z" fill="#DDE3E9"/>
<path fill-rule="evenodd" clip-rule="evenodd" d="M129.992 119.772C133.063 119.447 135.723 117.896 137.973 115.118C147.668 103.142 146.301 95.3665 138.863 91.5784C131.426 87.7904 123.544 91.502 111.019 89.2936C110.338 89.1735 109.707 89.1062 109.125 89.0917L102.762 88.3403C73.8844 146.413 61.6925 186.406 66.186 208.318L121.099 218.001C123.015 226.161 125.003 233.093 127.063 238.797L142.026 241.435C151.462 196.151 147.451 155.597 129.992 119.772Z" fill="#FF9B21"/>
<path fill-rule="evenodd" clip-rule="evenodd" d="M114.689 184.431C110.414 198.576 105.758 208.568 100.721 214.407L121.099 218.001C118.864 208.482 116.728 197.292 114.689 184.431L114.689 184.431Z" fill="black" fill-opacity="0.1"/>
</g>
</svg>
