<svg width="17" height="18" viewBox="0 0 17 18" fill="none" xmlns="http://www.w3.org/2000/svg">
<path d="M9.34693 16.2567C9.21019 16.4827 9.01392 16.6704 8.77778 16.8009C8.54163 16.9313 8.2739 17 8.00138 17C7.72886 17 7.46113 16.9313 7.22498 16.8009C6.98884 16.6704 6.79257 16.4827 6.65582 16.2567M12.6667 7.47596C12.6667 6.28886 12.175 5.15038 11.2998 4.31098C10.4247 3.47157 9.23768 3 8 3C6.76232 3 5.57534 3.47157 4.70017 4.31098C3.825 5.15038 3.33333 6.28886 3.33333 7.47596C3.33333 12.6979 1 14.1899 1 14.1899H15C15 14.1899 12.6667 12.6979 12.6667 7.47596Z" stroke="#98A0A6" stroke-width="1.5" stroke-linecap="round" stroke-linejoin="round"/>
<circle cx="13" cy="4" r="3.5" fill="#FF5171" stroke="white"/>
</svg>
