<svg width="16" height="14" viewBox="0 0 16 14" fill="none" xmlns="http://www.w3.org/2000/svg">
<path d="M11.1818 13V11.6667C11.1818 10.9594 10.9136 10.2811 10.4363 9.78105C9.95891 9.28095 9.31146 9 8.63636 9H3.54545C2.87036 9 2.22291 9.28095 1.74555 9.78105C1.26818 10.2811 1 10.9594 1 11.6667V13M15 13V11.6667C14.9996 11.0758 14.8119 10.5018 14.4663 10.0349C14.1208 9.56791 13.637 9.23438 13.0909 9.08667M10.5455 1.08667C11.093 1.23353 11.5783 1.56713 11.9249 2.03487C12.2714 2.50261 12.4595 3.07789 12.4595 3.67C12.4595 4.26211 12.2714 4.83739 11.9249 5.30513C11.5783 5.77287 11.093 6.10647 10.5455 6.25333M8.63636 3.66667C8.63636 5.13943 7.49672 6.33333 6.09091 6.33333C4.68509 6.33333 3.54545 5.13943 3.54545 3.66667C3.54545 2.19391 4.68509 1 6.09091 1C7.49672 1 8.63636 2.19391 8.63636 3.66667Z" stroke="#98A0A6" stroke-linecap="round" stroke-linejoin="round"/>
</svg>
