<svg width="40" height="40" viewBox="0 0 40 40" fill="none" xmlns="http://www.w3.org/2000/svg">
<path d="M34.8571 20.0002C34.8571 28.2056 28.2053 34.8574 20 34.8574M34.8571 20.0002C34.8571 11.7948 28.2053 5.14307 20 5.14307M34.8571 20.0002H5.14282M20 34.8574C11.7946 34.8574 5.14282 28.2056 5.14282 20.0002M20 34.8574C23.7162 30.7889 25.8281 25.5092 25.9428 20.0002C25.8281 14.4912 23.7162 9.21148 20 5.14307M20 34.8574C16.2838 30.7889 14.1719 25.5092 14.0571 20.0002C14.1719 14.4912 16.2838 9.21148 20 5.14307M5.14282 20.0002C5.14282 11.7948 11.7946 5.14307 20 5.14307" stroke="#507BFC" stroke-width="2.5" stroke-linecap="round" stroke-linejoin="round"/>
</svg>
