<svg width="22" height="22" viewBox="0 0 22 22" fill="none" xmlns="http://www.w3.org/2000/svg">
<path fill-rule="evenodd" clip-rule="evenodd" d="M20.827 19.98L15.9656 15.1197C17.2697 13.6208 18.0592 11.6652 18.0592 9.52772C18.0592 4.82262 14.2313 1 9.52961 1C4.82346 1 1 4.82705 1 9.52772C1 14.2284 4.8279 18.0554 9.52961 18.0554C11.6676 18.0554 13.6236 17.2661 15.1229 15.9623L19.9843 20.8226C20.0996 20.9379 20.2548 21 20.4056 21C20.5564 21 20.7117 20.9424 20.827 20.8226C21.0577 20.592 21.0577 20.2106 20.827 19.98ZM2 9.33038C2 5.28603 5.2912 2 9.332 2C13.3772 2 16.664 5.29047 16.664 9.33038C16.664 13.3703 13.3772 16.6652 9.332 16.6652C5.2912 16.6652 2 13.3747 2 9.33038Z" fill="#98A0A6"/>
<path d="M20.827 19.98L21.1805 19.6265L21.1805 19.6265L20.827 19.98ZM15.9656 15.1197L15.5884 14.7915L15.2822 15.1435L15.6121 15.4733L15.9656 15.1197ZM18.0592 9.52772H18.5592H18.0592ZM15.1229 15.9623L15.4764 15.6087L15.1466 15.279L14.7948 15.585L15.1229 15.9623ZM19.9843 20.8226L19.6307 21.1762L19.6307 21.1762L19.9843 20.8226ZM20.827 20.8226L20.4734 20.469L20.4669 20.4758L20.827 20.8226ZM9.332 16.6652V17.1652V16.6652ZM21.1805 19.6265L16.3191 14.7661L15.6121 15.4733L20.4735 20.3336L21.1805 19.6265ZM16.3428 15.4479C17.7228 13.8618 18.5592 11.7907 18.5592 9.52772H17.5592C17.5592 11.5397 16.8165 13.3799 15.5884 14.7915L16.3428 15.4479ZM18.5592 9.52772C18.5592 4.5462 14.5072 0.5 9.52961 0.5V1.5C13.9554 1.5 17.5592 5.09903 17.5592 9.52772H18.5592ZM9.52961 0.5C4.54726 0.5 0.5 4.55097 0.5 9.52772H1.5C1.5 5.10313 5.09967 1.5 9.52961 1.5V0.5ZM0.5 9.52772C0.5 14.5046 4.55186 18.5554 9.52961 18.5554V17.5554C5.10394 17.5554 1.5 13.9521 1.5 9.52772H0.5ZM9.52961 18.5554C11.793 18.5554 13.8645 17.7193 15.451 16.3396L14.7948 15.585C13.3828 16.8129 11.5421 17.5554 9.52961 17.5554V18.5554ZM14.7694 16.3159L19.6307 21.1762L20.3378 20.469L15.4764 15.6087L14.7694 16.3159ZM19.6307 21.1762C19.8393 21.3848 20.1215 21.5 20.4056 21.5V20.5C20.3983 20.5 20.3868 20.4984 20.3734 20.4928C20.3602 20.4873 20.3479 20.4792 20.3378 20.469L19.6307 21.1762ZM20.4056 21.5C20.6812 21.5 20.9701 21.3948 21.1871 21.1695L20.4669 20.4758C20.4532 20.4899 20.4317 20.5 20.4056 20.5V21.5ZM21.1805 21.1762C21.6065 20.7503 21.6065 20.0523 21.1805 19.6265L20.4735 20.3336C20.4896 20.3497 20.5 20.373 20.5 20.4013C20.5 20.4296 20.4896 20.453 20.4735 20.469L21.1805 21.1762ZM2.5 9.33038C2.5 5.56247 5.56704 2.5 9.332 2.5V1.5C5.01535 1.5 1.5 5.00959 1.5 9.33038H2.5ZM9.332 2.5C13.101 2.5 16.164 5.56652 16.164 9.33038H17.164C17.164 5.01442 13.6535 1.5 9.332 1.5V2.5ZM16.164 9.33038C16.164 13.0946 13.1006 16.1652 9.332 16.1652V17.1652C13.6539 17.1652 17.164 13.6459 17.164 9.33038H16.164ZM9.332 16.1652C5.56743 16.1652 2.5 13.0987 2.5 9.33038H1.5C1.5 13.6508 5.01496 17.1652 9.332 17.1652V16.1652Z" fill="#98A0A6"/>
</svg>
