<svg width="18" height="14" viewBox="0 0 18 14" fill="none" xmlns="http://www.w3.org/2000/svg">
<path fill-rule="evenodd" clip-rule="evenodd" d="M0 1C0 0.447715 0.447716 0 1 0H17C17.5523 0 18 0.447715 18 1C18 1.55228 17.5523 2 17 2H1C0.447716 2 0 1.55228 0 1ZM0 7C0 6.44772 0.447716 6 1 6H17C17.5523 6 18 6.44772 18 7C18 7.55228 17.5523 8 17 8H1C0.447716 8 0 7.55228 0 7ZM1 12C0.447716 12 0 12.4477 0 13C0 13.5523 0.447716 14 1 14H9C9.55229 14 10 13.5523 10 13C10 12.4477 9.55228 12 9 12H1Z" fill="#98A0A6"/>
</svg>
